<?xml version="1.0" standalone="no"?><!DOCTYPE svg PUBLIC "-//W3C//DTD SVG 1.1//EN" "http://www.w3.org/Graphics/SVG/1.1/DTD/svg11.dtd"><svg t="1537335156208" class="icon" style="" viewBox="0 0 1024 1024" version="1.1" xmlns="http://www.w3.org/2000/svg" p-id="4875" xmlns:xlink="http://www.w3.org/1999/xlink" width="200" height="200"><defs><style type="text/css"></style></defs><path d="M196.4 116.7h630.2s0 21.5 0 0V64H196.4v52.7c0 21.5 0 0 0 0z m229.1 379.4l-1.2 0.5h1.5l-0.3-0.5z m462.2-275.4H136.3c-24.3-0.3-44.1 19.3-44.6 43.7v651.9c0 24.1 20.1 43.7 44.6 43.7h751.4c24.3 0.3 44.1-19.2 44.6-43.7V264.4c0-23.9-20-43.7-44.6-43.7z m-184.3 449c0 21.4-20.1 39.2-44.6 39.2H552v94.8c0 24.1-18.1 43.7-40 43.7s-40-19.6-40-43.7V709H365.3c-24.6 0-44.6-17.6-44.6-39.2 0-21.4 20.1-39.2 44.6-39.2h106.8v-56.1H365.3c-24.6 0-44.6-17.6-44.6-39.3 0-21.4 20.1-39.2 44.6-39.2h59.1l-21.9-40.9-25.9-48.5c-11.4-21.3-4.8-46.9 14.7-56.9 19.5-10.1 44.8-0.8 56.2 20.4l21 38.9c0.4 0.5 0.7 1.3 1 1.9l21.5 40 21.8 40.5 21.7-40.6 21.7-40c0.3-0.5 0.7-1.2 1-1.7l20.7-38.9c11.4-21.3 36.7-30.6 56.2-20.4 19.5 9.9 26.2 35.6 14.7 56.9l-26 48.4-21.9 40.9h57.9c24.6 0 44.8 17.6 44.8 39.2 0 21.5-20.1 39.3-44.6 39.3H551.9v56.1h106.8c24.7 0 44.7 17.7 44.7 39.1z" p-id="4876"></path></svg>