<?xml version="1.0" standalone="no"?><!DOCTYPE svg PUBLIC "-//W3C//DTD SVG 1.1//EN" "http://www.w3.org/Graphics/SVG/1.1/DTD/svg11.dtd"><svg t="1527904690071" class="icon" style="" viewBox="0 0 1024 1024" version="1.1" xmlns="http://www.w3.org/2000/svg" p-id="16556" xmlns:xlink="http://www.w3.org/1999/xlink" width="200" height="200"><defs><style type="text/css"></style></defs><path d="M875.5401819 512.69626197c-3.64654023 8.03948658-15.55616085 26.63388387-47.09840668 26.63388388h-18.8294986v266.0182437c0 35.20933661-27.5718235 63.8251429-61.47577059 63.8251429H612.63744455c-33.95573533 0-61.47412765-28.61580629-61.47412764-63.8251429v-63.18231211c-0.09124523-19.40738731-15.81921166-35.11973547-35.24632804-35.20933661h-7.828224c-19.42711637 0.08960114-35.15590429 15.8019493-35.24632804 35.20933661v63.18231211c0 35.20933661-27.57017941 63.8251429-61.42069532 63.8251429h-135.61085724c-33.84558365 0-61.41740715-28.61580629-61.41740715-63.8251429v-266.0182437h-18.88292978c-31.4879909 0-43.39843413-18.64782848-47.04497436-26.63388388-3.59310791-8.03784249-9.87097771-29.20684885 10.89029916-52.94635235l305.97728939-283.32780203c11.96223033-13.77070421 29.02024647-21.59564117 46.66765994-21.59564004 17.65070165 0 34.65528547 7.82575843 46.61916104 21.54220886l305.9756453 283.38123321c20.81553067 23.7395035 14.53766201 44.90850873 10.94455409 52.94635235z" p-id="16557"></path></svg>