<?xml version="1.0" standalone="no"?><!DOCTYPE svg PUBLIC "-//W3C//DTD SVG 1.1//EN" "http://www.w3.org/Graphics/SVG/1.1/DTD/svg11.dtd"><svg t="1537334613753" class="icon" style="" viewBox="0 0 1024 1024" version="1.1" xmlns="http://www.w3.org/2000/svg" p-id="1879" xmlns:xlink="http://www.w3.org/1999/xlink" width="200" height="200"><defs><style type="text/css"></style></defs><path d="M192 576h145.92A128 128 0 0 0 448 640h128a128 128 0 0 0 128-128h128a192 192 0 0 0 0-384H704A128 128 0 0 0 576 0H448a128 128 0 0 0-128 128H0v64h337.92A128 128 0 0 0 448 256h128a128 128 0 0 0 110.08-64H832a128 128 0 0 1 0 256H686.08A128 128 0 0 0 576 384H448a128 128 0 0 0-128 128H192a192 192 0 0 0 0 384h128a128 128 0 0 0 128 128h128a128 128 0 0 0 128-128h320v-64H686.08A128 128 0 0 0 576 768H448a128 128 0 0 0-110.08 64H192a128 128 0 0 1 0-256z m384-384H448a64 64 0 0 1 0-128h128a64 64 0 0 1 0 128zM448 448h128a64 64 0 0 1 0 128H448a64 64 0 0 1 0-128z m0 384h128a64 64 0 0 1 0 128H448a64 64 0 0 1 0-128z" p-id="1880"></path></svg>