<?xml version="1.0" standalone="no"?><!DOCTYPE svg PUBLIC "-//W3C//DTD SVG 1.1//EN" "http://www.w3.org/Graphics/SVG/1.1/DTD/svg11.dtd"><svg t="1537350740453" class="icon" style="" viewBox="0 0 1024 1024" version="1.1" xmlns="http://www.w3.org/2000/svg" p-id="5569" xmlns:xlink="http://www.w3.org/1999/xlink" width="200" height="200"><defs><style type="text/css"></style></defs><path d="M916.210285 0H107.789445a107.789445 107.789445 0 0 0-107.789445 107.789445v646.736672a107.789445 107.789445 0 0 0 107.789445 107.789446h80.842084v134.736806a26.947361 26.947361 0 0 0 43.115778 21.557889L404.21042 862.315563h511.999865a107.789445 107.789445 0 0 0 107.789446-107.789446V107.789445a107.789445 107.789445 0 0 0-107.789446-107.789445z m-134.736806 323.368336a80.842084 80.842084 0 1 1-80.842084 80.842084 80.842084 80.842084 0 0 1 80.842084-80.842084z m-269.473614 0a80.842084 80.842084 0 1 1-80.842084 80.842084 80.842084 80.842084 0 0 1 80.842084-80.842084zM242.526252 323.368336a80.842084 80.842084 0 1 1-80.842084 80.842084 80.842084 80.842084 0 0 1 80.842084-80.842084z" fill="#999999" p-id="5570"></path></svg>