<?xml version="1.0" standalone="no"?><!DOCTYPE svg PUBLIC "-//W3C//DTD SVG 1.1//EN" "http://www.w3.org/Graphics/SVG/1.1/DTD/svg11.dtd"><svg t="1539690527245" class="icon" style="" viewBox="0 0 1024 1024" version="1.1" xmlns="http://www.w3.org/2000/svg" p-id="3375" xmlns:xlink="http://www.w3.org/1999/xlink" width="200" height="200"><defs><style type="text/css"></style></defs><path d="M506.88 552.96c112.64 0 217.6-99.84 230.4-243.2 12.8-151.04-87.04-294.4-230.4-294.4-140.8 0-240.64 143.36-230.4 294.4 12.8 143.36 117.76 243.2 230.4 243.2z m0 76.8c-253.44 0-458.24 99.84-458.24 225.28 0 43.52 38.4 143.36 153.6 156.16 89.6 10.24 194.56 10.24 307.2 10.24 115.2 0 227.84 0 307.2-10.24 112.64-12.8 153.6-115.2 153.6-156.16-2.56-122.88-212.48-225.28-463.36-225.28z" fill="" p-id="3376"></path></svg>