<?xml version="1.0" encoding="utf-8"?>
<!-- Generator: Adobe Illustrator 15.0.0, SVG Export Plug-In . SVG Version: 6.00 Build 0)  -->
<!DOCTYPE svg PUBLIC "-//W3C//DTD SVG 1.1//EN" "http://www.w3.org/Graphics/SVG/1.1/DTD/svg11.dtd">
<svg version="1.1" id="Layer_1" xmlns="http://www.w3.org/2000/svg" xmlns:xlink="http://www.w3.org/1999/xlink" x="0px" y="0px"
	 width="64px" height="64px" viewBox="0 0 64 64" enable-background="new 0 0 64 64" xml:space="preserve">
<g>
	<g>
		<path d="M33.838,21.219h-3.653v10.953h3.653V21.219z"/>
	</g>
	<g>
		<path d="M33.838,34.029h-3.653v9.182h3.653V34.029z"/>
	</g>
	<g>
		<path d="M61.649,16.235c-0.14-2.198-0.93-3.658-2.175-4.002l-0.54-0.148l0.016,0.559c0.115,4.7-11.341,12.035-13.068,13.112
			c-3.199-2.471-6.999-4.044-10.997-4.55l-0.466-0.06v22.949h0.005l-0.005,2.179h21.075v4.813H8.526v-4.813h21.081v-0.731
			l-0.014-0.069c-0.009-0.031-0.016-0.943-0.016-0.964v-0.414h0.029V21.144l-0.464,0.061c-4.006,0.508-7.81,2.084-11.009,4.559
			c-1.729-1.079-13.197-8.412-13.083-13.121l0.012-0.559l-0.538,0.148c-1.246,0.345-2.038,1.806-2.175,4.006
			c-0.294,4.792,2.593,12.972,9.928,16.276c-1.927,3.394-2.944,7.25-2.944,11.166v0.414h19.445v1.347H7.698v6.474h48.626v-6.474
			H35.247v-1.347H54.69v-0.414c0-3.916-1.019-7.775-2.95-11.173C59.065,29.199,61.947,21.024,61.649,16.235z"/>
	</g>
</g>
</svg>
